<svg width="37" height="37" viewBox="0 0 37 37" fill="none" xmlns="http://www.w3.org/2000/svg">
<mask id="path-1-inside-1_16_542" fill="white">
<path fill-rule="evenodd" clip-rule="evenodd" d="M9.82843 4.34314C8.26633 2.78105 5.73367 2.78105 4.17157 4.34314C2.60948 5.90524 2.60948 8.4379 4.17157 10L12.6863 18.5147L4.201 27C2.6389 28.5621 2.6389 31.0948 4.201 32.6569C5.7631 34.2189 8.29576 34.2189 9.85786 32.6569L18.3431 24.1716L26.799 32.6274C28.3611 34.1895 30.8937 34.1895 32.4558 32.6274C34.0179 31.0653 34.0179 28.5327 32.4558 26.9706L24 18.5147L32.4853 10.0294C34.0474 8.46734 34.0474 5.93468 32.4853 4.37258C30.9232 2.81048 28.3905 2.81048 26.8284 4.37258L18.3431 12.8579L9.82843 4.34314Z"/>
</mask>
<path fill-rule="evenodd" clip-rule="evenodd" d="M9.82843 4.34314C8.26633 2.78105 5.73367 2.78105 4.17157 4.34314C2.60948 5.90524 2.60948 8.4379 4.17157 10L12.6863 18.5147L4.201 27C2.6389 28.5621 2.6389 31.0948 4.201 32.6569C5.7631 34.2189 8.29576 34.2189 9.85786 32.6569L18.3431 24.1716L26.799 32.6274C28.3611 34.1895 30.8937 34.1895 32.4558 32.6274C34.0179 31.0653 34.0179 28.5327 32.4558 26.9706L24 18.5147L32.4853 10.0294C34.0474 8.46734 34.0474 5.93468 32.4853 4.37258C30.9232 2.81048 28.3905 2.81048 26.8284 4.37258L18.3431 12.8579L9.82843 4.34314Z" fill="#52616B"/>
<path d="M4.17157 4.34314L4.87868 5.05025L4.17157 4.34314ZM9.82843 4.34314L10.5355 3.63604V3.63604L9.82843 4.34314ZM4.17157 10L4.87868 9.29289L4.17157 10ZM12.6863 18.5147L13.3934 19.2218L14.1005 18.5147L13.3934 17.8076L12.6863 18.5147ZM4.201 27L4.90811 27.7071H4.90811L4.201 27ZM4.201 32.6569L4.90811 31.9497L4.90811 31.9497L4.201 32.6569ZM9.85786 32.6569L9.15075 31.9497H9.15075L9.85786 32.6569ZM18.3431 24.1716L19.0502 23.4645L18.3431 22.7574L17.636 23.4645L18.3431 24.1716ZM26.799 32.6274L27.5061 31.9203H27.5061L26.799 32.6274ZM32.4558 32.6274L31.7487 31.9203L32.4558 32.6274ZM32.4558 26.9706L31.7487 27.6777L32.4558 26.9706ZM24 18.5147L23.2929 17.8076L22.5858 18.5147L23.2929 19.2218L24 18.5147ZM32.4853 10.0294L31.7782 9.32233L32.4853 10.0294ZM32.4853 4.37258L31.7782 5.07969L32.4853 4.37258ZM26.8284 4.37258L26.1213 3.66547V3.66548L26.8284 4.37258ZM18.3431 12.8579L17.636 13.565L18.3431 14.2721L19.0502 13.565L18.3431 12.8579ZM4.87868 5.05025C6.05025 3.87868 7.94975 3.87868 9.12132 5.05025L10.5355 3.63604C8.58291 1.68341 5.41709 1.68341 3.46447 3.63604L4.87868 5.05025ZM4.87868 9.29289C3.70711 8.12132 3.70711 6.22182 4.87868 5.05025L3.46447 3.63604C1.51184 5.58866 1.51185 8.75448 3.46447 10.7071L4.87868 9.29289ZM13.3934 17.8076L4.87868 9.29289L3.46447 10.7071L11.9792 19.2218L13.3934 17.8076ZM4.90811 27.7071L13.3934 19.2218L11.9792 17.8076L3.49389 26.2929L4.90811 27.7071ZM4.90811 31.9497C3.73653 30.7782 3.73653 28.8787 4.90811 27.7071L3.49389 26.2929C1.54127 28.2455 1.54127 31.4113 3.49389 33.364L4.90811 31.9497ZM9.15075 31.9497C7.97918 33.1213 6.07968 33.1213 4.90811 31.9497L3.49389 33.364C5.44652 35.3166 8.61234 35.3166 10.565 33.364L9.15075 31.9497ZM17.636 23.4645L9.15075 31.9497L10.565 33.364L19.0502 24.8787L17.636 23.4645ZM27.5061 31.9203L19.0502 23.4645L17.636 24.8787L26.0919 33.3345L27.5061 31.9203ZM31.7487 31.9203C30.5772 33.0919 28.6777 33.0919 27.5061 31.9203L26.0919 33.3345C28.0445 35.2871 31.2103 35.2871 33.163 33.3345L31.7487 31.9203ZM31.7487 27.6777C32.9203 28.8492 32.9203 30.7487 31.7487 31.9203L33.1629 33.3345C35.1156 31.3819 35.1156 28.2161 33.1629 26.2635L31.7487 27.6777ZM23.2929 19.2218L31.7487 27.6777L33.1629 26.2635L24.7071 17.8076L23.2929 19.2218ZM31.7782 9.32233L23.2929 17.8076L24.7071 19.2218L33.1924 10.7365L31.7782 9.32233ZM31.7782 5.07969C32.9497 6.25126 32.9497 8.15076 31.7782 9.32233L33.1924 10.7365C35.145 8.78392 35.145 5.6181 33.1924 3.66547L31.7782 5.07969ZM27.5355 5.07969C28.7071 3.90812 30.6066 3.90812 31.7782 5.07969L33.1924 3.66547C31.2398 1.71285 28.0739 1.71285 26.1213 3.66547L27.5355 5.07969ZM19.0502 13.565L27.5355 5.07969L26.1213 3.66548L17.636 12.1508L19.0502 13.565ZM9.12132 5.05025L17.636 13.565L19.0502 12.1508L10.5355 3.63604L9.12132 5.05025Z" fill="#1E2022" mask="url(#path-1-inside-1_16_542)"/>
</svg>
