<svg width="32" height="32" viewBox="0 0 32 32" fill="none" xmlns="http://www.w3.org/2000/svg">
<g style="mix-blend-mode:color-dodge" filter="url(#filter0_d_29_540)">
<rect x="4" width="24" height="24" rx="10" fill="url(#paint0_linear_29_540)"/>
<g filter="url(#filter1_b_29_540)">
<path d="M16 2C14.6868 2 13.3864 2.25866 12.1732 2.7612C10.9599 3.26375 9.85752 4.00035 8.92893 4.92893C7.05357 6.8043 6 9.34784 6 12C6 16.42 8.87 20.17 12.84 21.5C13.34 21.58 13.5 21.27 13.5 21V19.31C10.73 19.91 10.14 17.97 10.14 17.97C9.68 16.81 9.03 16.5 9.03 16.5C8.12 15.88 9.1 15.9 9.1 15.9C10.1 15.97 10.63 16.93 10.63 16.93C11.5 18.45 12.97 18 13.54 17.76C13.63 17.11 13.89 16.67 14.17 16.42C11.95 16.17 9.62 15.31 9.62 11.5C9.62 10.39 10 9.5 10.65 8.79C10.55 8.54 10.2 7.5 10.75 6.15C10.75 6.15 11.59 5.88 13.5 7.17C14.29 6.95 15.15 6.84 16 6.84C16.85 6.84 17.71 6.95 18.5 7.17C20.41 5.88 21.25 6.15 21.25 6.15C21.8 7.5 21.45 8.54 21.35 8.79C22 9.5 22.38 10.39 22.38 11.5C22.38 15.32 20.04 16.16 17.81 16.41C18.17 16.72 18.5 17.33 18.5 18.26V21C18.5 21.27 18.66 21.59 19.17 21.5C23.14 20.16 26 16.42 26 12C26 10.6868 25.7413 9.38642 25.2388 8.17317C24.7362 6.95991 23.9997 5.85752 23.0711 4.92893C22.1425 4.00035 21.0401 3.26375 19.8268 2.7612C18.6136 2.25866 17.3132 2 16 2Z" fill="url(#paint1_linear_29_540)" fill-opacity="0.2"/>
<path d="M10.7409 15.6778C11.4873 16.305 12.4003 16.6229 13.2988 16.7951C13.2166 16.9739 13.1488 17.1727 13.0993 17.391C12.8564 17.4695 12.5504 17.5337 12.2407 17.5069C11.8481 17.4728 11.4134 17.2922 11.0639 16.6816L11.0632 16.6802L11.0553 16.6666C11.049 16.6558 11.0404 16.6415 11.0296 16.6242C11.0081 16.5896 10.9775 16.5428 10.9379 16.4876C10.8592 16.3778 10.7424 16.2314 10.5874 16.0816C10.2809 15.7856 9.79357 15.4473 9.13491 15.4012L9.12257 15.4004L9.1102 15.4001L9.1 15.9C9.1102 15.4001 9.11005 15.4001 9.10989 15.4001L9.10955 15.4001L9.10881 15.4001L9.10704 15.4L9.1024 15.4L9.08887 15.3999C9.07807 15.3999 9.06366 15.4001 9.0464 15.4005C9.01233 15.4014 8.96494 15.4037 8.91104 15.4091C8.82323 15.4179 8.64208 15.4414 8.48199 15.5298C8.39694 15.5768 8.26944 15.6686 8.19566 15.8339C8.11447 16.0158 8.1368 16.1983 8.19655 16.3395C8.25089 16.4679 8.33849 16.5721 8.42268 16.6542C8.5106 16.7399 8.61998 16.8257 8.74847 16.9132L8.78016 16.9348L8.8074 16.9478C8.80799 16.9481 8.80868 16.9485 8.80949 16.949C8.81654 16.953 8.8319 16.9622 8.85405 16.9776C8.89827 17.0082 8.96992 17.0635 9.05695 17.1516C9.22829 17.3248 9.46588 17.6316 9.66981 18.1408C9.67165 18.1462 9.67376 18.1523 9.67617 18.1591C9.6839 18.1808 9.69469 18.2095 9.709 18.244C9.73755 18.3127 9.78044 18.4053 9.84137 18.5119C9.96287 18.7244 10.1593 18.9985 10.4618 19.2497C10.9999 19.6965 11.8162 20.0241 13 19.8976V21C13 21.0046 12.9998 21.0088 12.9996 21.0127C12.9881 21.013 12.9732 21.0127 12.9543 21.0109C9.20444 19.7338 6.5 16.1815 6.5 12C6.5 9.48044 7.50089 7.06408 9.28249 5.28249C10.1646 4.40033 11.2119 3.70056 12.3645 3.22314C13.5171 2.74572 14.7524 2.5 16 2.5C17.2476 2.5 18.4829 2.74572 19.6355 3.22314C20.7881 3.70056 21.8354 4.40033 22.7175 5.28249C23.5997 6.16464 24.2994 7.21191 24.7769 8.36451C25.2543 9.5171 25.5 10.7524 25.5 12C25.5 16.1829 22.8035 19.7269 19.0507 21.0125C19.0296 21.015 19.0131 21.0156 19.0007 21.0155C19.0003 21.0108 19 21.0056 19 21V18.26C19 17.6754 18.8836 17.1804 18.6954 16.7838C19.5929 16.613 20.5048 16.2991 21.2511 15.6781C22.2553 14.8424 22.88 13.5204 22.88 11.5C22.88 10.3771 22.5271 9.44117 21.9135 8.67902C22.0578 8.16292 22.2042 7.16703 21.713 5.96135L21.625 5.74536L21.403 5.67399L21.25 6.15C21.403 5.67399 21.4025 5.67383 21.402 5.67368L21.4011 5.67336L21.399 5.67272L21.3947 5.67139L21.3851 5.66856C21.3782 5.6666 21.3705 5.66451 21.3619 5.66235C21.3447 5.65802 21.324 5.65342 21.2998 5.64901C21.2513 5.64018 21.189 5.63216 21.1126 5.62853C20.9596 5.62126 20.7525 5.63176 20.489 5.68682C19.9969 5.78962 19.3118 6.04682 18.4111 6.6294C17.6373 6.43576 16.8129 6.34 16 6.34C15.1871 6.34 14.3627 6.43576 13.5889 6.6294C12.6882 6.04682 12.0031 5.78962 11.511 5.68682C11.2475 5.63176 11.0404 5.62126 10.8874 5.62853C10.811 5.63216 10.7487 5.64018 10.7002 5.64901C10.676 5.65342 10.6553 5.65802 10.6381 5.66235C10.6295 5.66451 10.6218 5.6666 10.6149 5.66856L10.6053 5.67139L10.601 5.67272L10.5989 5.67336L10.598 5.67368C10.5975 5.67383 10.597 5.67399 10.75 6.15L10.597 5.67399L10.375 5.74536L10.287 5.96135C9.79575 7.16703 9.9422 8.16292 10.0865 8.67902C9.47285 9.44117 9.12 10.3771 9.12 11.5C9.12 13.5151 9.74187 14.8385 10.7409 15.6778Z" stroke="black"/>
</g>
</g>
<defs>
<filter id="filter0_d_29_540" x="0" y="0" width="32" height="32" filterUnits="userSpaceOnUse" color-interpolation-filters="sRGB">
<feFlood flood-opacity="0" result="BackgroundImageFix"/>
<feColorMatrix in="SourceAlpha" type="matrix" values="0 0 0 0 0 0 0 0 0 0 0 0 0 0 0 0 0 0 127 0" result="hardAlpha"/>
<feOffset dy="4"/>
<feGaussianBlur stdDeviation="2"/>
<feComposite in2="hardAlpha" operator="out"/>
<feColorMatrix type="matrix" values="0 0 0 0 0 0 0 0 0 0 0 0 0 0 0 0 0 0 0.25 0"/>
<feBlend mode="normal" in2="BackgroundImageFix" result="effect1_dropShadow_29_540"/>
<feBlend mode="normal" in="SourceGraphic" in2="effect1_dropShadow_29_540" result="shape"/>
</filter>
<filter id="filter1_b_29_540" x="-44" y="-48" width="120" height="119.516" filterUnits="userSpaceOnUse" color-interpolation-filters="sRGB">
<feFlood flood-opacity="0" result="BackgroundImageFix"/>
<feGaussianBlur in="BackgroundImageFix" stdDeviation="25"/>
<feComposite in2="SourceAlpha" operator="in" result="effect1_backgroundBlur_29_540"/>
<feBlend mode="normal" in="SourceGraphic" in2="effect1_backgroundBlur_29_540" result="shape"/>
</filter>
<linearGradient id="paint0_linear_29_540" x1="39.1" y1="12.2105" x2="-10.25" y2="12.1783" gradientUnits="userSpaceOnUse">
<stop stop-color="#E7E7E7"/>
<stop offset="0.5" stop-color="white"/>
<stop offset="1" stop-color="#E7E7E7"/>
</linearGradient>
<linearGradient id="paint1_linear_29_540" x1="26" y1="2" x2="21.2869" y2="24.6907" gradientUnits="userSpaceOnUse">
<stop stop-color="white" stop-opacity="0.6"/>
<stop offset="1" stop-color="white" stop-opacity="0.1"/>
</linearGradient>
</defs>
</svg>
