<svg width="26" height="26" viewBox="0 0 26 26" fill="none" xmlns="http://www.w3.org/2000/svg">
<g filter="url(#filter0_d_8_1859)">
<path d="M2.5 8.96667C2.5 6.35309 2.5 5.0463 3.00864 4.04804C3.45605 3.16995 4.16995 2.45605 5.04804 2.00864C6.0463 1.5 7.35309 1.5 9.96667 1.5H16.0333C18.6469 1.5 19.9537 1.5 20.952 2.00864C21.83 2.45605 22.544 3.16995 22.9914 4.04804C23.5 5.0463 23.5 6.35309 23.5 8.96667V15.0333C23.5 17.6469 23.5 18.9537 22.9914 19.952C22.544 20.83 21.83 21.544 20.952 21.9914C19.9537 22.5 18.6469 22.5 16.0333 22.5H9.96667C7.35309 22.5 6.0463 22.5 5.04804 21.9914C4.16995 21.544 3.45605 20.83 3.00864 19.952C2.5 18.9537 2.5 17.6469 2.5 15.0333V8.96667Z" fill="white"/>
<path d="M17.5385 6.39221L13.0481 9.89653L8.45514 6.39221V6.39316L8.46069 6.39789V11.3049L12.9963 14.885L17.5385 11.4432V6.39221Z" fill="#EA4335"/>
<path d="M18.7176 5.53979L17.5384 6.39219V11.4431L21.249 8.59423V6.87806C21.249 6.87806 20.7986 4.42693 18.7176 5.53979Z" fill="#FBBC05"/>
<path d="M17.5384 11.4433V17.9944H20.3824C20.3824 17.9944 21.1917 17.9111 21.25 16.9886V8.59436L17.5384 11.4433Z" fill="#34A853"/>
<path d="M8.4609 17.9999V11.3048L8.45514 11.3L8.4609 17.9999Z" fill="#C5221F"/>
<path d="M8.4551 6.39315L7.28234 5.54549C5.20135 4.43263 4.75 6.88281 4.75 6.88281V8.59898L8.4551 11.3001V6.39315Z" fill="#C5221F"/>
<path d="M8.45514 6.39307V11.3001L8.4609 11.3048V6.3978L8.45514 6.39307Z" fill="#C5221F"/>
<path d="M4.75 8.59998V16.9942C4.80734 17.9177 5.61754 18.0001 5.61754 18.0001H8.46158L8.4551 11.3002L4.75 8.59998Z" fill="#4285F4"/>
</g>
<defs>
<filter id="filter0_d_8_1859" x="-1" y="-1" width="28" height="28" filterUnits="userSpaceOnUse" color-interpolation-filters="sRGB">
<feFlood flood-opacity="0" result="BackgroundImageFix"/>
<feColorMatrix in="SourceAlpha" type="matrix" values="0 0 0 0 0 0 0 0 0 0 0 0 0 0 0 0 0 0 127 0" result="hardAlpha"/>
<feOffset dy="1"/>
<feGaussianBlur stdDeviation="1"/>
<feColorMatrix type="matrix" values="0 0 0 0 0.0627451 0 0 0 0 0.0941176 0 0 0 0 0.156863 0 0 0 0.05 0"/>
<feBlend mode="normal" in2="BackgroundImageFix" result="effect1_dropShadow_8_1859"/>
<feBlend mode="normal" in="SourceGraphic" in2="effect1_dropShadow_8_1859" result="shape"/>
</filter>
</defs>
</svg>
