<svg width="24" height="24" viewBox="0 0 24 24" fill="none" xmlns="http://www.w3.org/2000/svg">
<path d="M10.1438 14.8979L15.0095 12.3123L10.1438 9.70508V14.8979Z" fill="white"/>
<path d="M20.8102 8.80222C20.8102 8.80222 20.6345 7.53111 20.0933 6.96778C19.4116 6.23111 18.6455 6.23111 18.287 6.18778C15.7778 6 12.0035 6 12.0035 6H11.9965C11.9965 6 8.22218 6 5.69895 6.18778C5.34752 6.23111 4.58141 6.23111 3.89262 6.96778C3.35845 7.53111 3.18274 8.80222 3.18274 8.80222C3.18274 8.80222 3 10.3044 3 11.7994V13.2006C3 14.6956 3.18274 16.1906 3.18274 16.1906C3.18274 16.1906 3.35845 17.4617 3.89965 18.025C4.58141 18.7617 5.48106 18.74 5.88169 18.8122C7.32253 18.9567 11.9965 19 11.9965 19C11.9965 19 15.7778 18.9928 18.294 18.805C18.6455 18.7617 19.4116 18.7617 20.1004 18.025C20.6415 17.4617 20.8173 16.1906 20.8173 16.1906C20.8173 16.1906 21 14.6956 21 13.2006V11.7994C20.993 10.3044 20.8102 8.80222 20.8102 8.80222ZM10.141 14.8978V9.705L15.0047 12.3122L10.141 14.8978Z" fill="url(#paint0_linear_8_1875)"/>
<defs>
<linearGradient id="paint0_linear_8_1875" x1="2306.1" y1="6.00002" x2="2306.1" y2="2346.71" gradientUnits="userSpaceOnUse">
<stop stop-color="#E52D27"/>
<stop offset="1" stop-color="#BF171D"/>
</linearGradient>
</defs>
</svg>
