<svg width="32" height="32" viewBox="0 0 32 32" fill="none" xmlns="http://www.w3.org/2000/svg">
<g style="mix-blend-mode:color-dodge" filter="url(#filter0_d_29_542)">
<g clip-path="url(#clip0_29_542)">
<rect x="4" width="24" height="24" rx="10" fill="url(#paint0_linear_29_542)"/>
<path d="M16 4C16.855 4 17.732 4.022 18.582 4.058L19.586 4.106L20.547 4.163L21.447 4.224L22.269 4.288C23.1612 4.35589 24.0008 4.73643 24.64 5.3626C25.2791 5.98877 25.6768 6.8204 25.763 7.711L25.803 8.136L25.878 9.046C25.948 9.989 26 11.017 26 12C26 12.983 25.948 14.011 25.878 14.954L25.803 15.864L25.763 16.289C25.6768 17.1798 25.2789 18.0115 24.6396 18.6377C24.0002 19.2639 23.1604 19.6443 22.268 19.712L21.448 19.775L20.548 19.837L19.586 19.894L18.582 19.942C17.7218 19.9793 16.861 19.9986 16 20C15.139 19.9986 14.2782 19.9793 13.418 19.942L12.414 19.894L11.453 19.837L10.553 19.775L9.731 19.712C8.83881 19.6441 7.9992 19.2636 7.36004 18.6374C6.72089 18.0112 6.32319 17.1796 6.237 16.289L6.197 15.864L6.122 14.954C6.04583 13.9711 6.00514 12.9858 6 12C6 11.017 6.052 9.989 6.122 9.046L6.197 8.136L6.237 7.711C6.32316 6.82055 6.72071 5.98905 7.35966 5.36291C7.99861 4.73676 8.83799 4.35612 9.73 4.288L10.551 4.224L11.451 4.163L12.413 4.106L13.417 4.058C14.2775 4.02073 15.1387 4.00139 16 4ZM16 6C15.175 6 14.326 6.022 13.5 6.056L12.522 6.103L11.583 6.158L10.701 6.218L9.893 6.281C9.46819 6.31074 9.06769 6.49013 8.76266 6.78728C8.45763 7.08444 8.26784 7.48012 8.227 7.904C8.11 9.113 8 10.618 8 12C8 13.382 8.11 14.887 8.227 16.096C8.312 16.968 9.004 17.646 9.893 17.719L10.701 17.781L11.583 17.841L12.522 17.897L13.5 17.944C14.326 17.978 15.175 18 16 18C16.825 18 17.674 17.978 18.5 17.944L19.478 17.897L20.417 17.842L21.299 17.782L22.107 17.719C22.5318 17.6893 22.9323 17.5099 23.2373 17.2127C23.5424 16.9156 23.7322 16.5199 23.773 16.096C23.89 14.887 24 13.382 24 12C24 10.618 23.89 9.113 23.773 7.904C23.7322 7.48012 23.5424 7.08444 23.2373 6.78728C22.9323 6.49013 22.5318 6.31074 22.107 6.281L21.299 6.219L20.417 6.159L19.478 6.103L18.5 6.056C17.6671 6.02025 16.8336 6.00158 16 6ZM14 9.575C13.9999 9.47726 14.0237 9.38099 14.0694 9.29455C14.115 9.20812 14.181 9.13413 14.2618 9.07903C14.3425 9.02394 14.4354 8.98939 14.5326 8.97841C14.6297 8.96742 14.728 8.98033 14.819 9.016L14.9 9.056L19.1 11.48C19.1836 11.5283 19.2544 11.596 19.3063 11.6774C19.3581 11.7589 19.3896 11.8517 19.3979 11.9478C19.4062 12.044 19.3912 12.1408 19.3542 12.23C19.3171 12.3192 19.2591 12.3981 19.185 12.46L19.1 12.52L14.9 14.945C14.8154 14.994 14.72 15.0216 14.6223 15.0253C14.5246 15.0291 14.4274 15.0089 14.3393 14.9665C14.2511 14.9241 14.1747 14.8608 14.1166 14.7821C14.0585 14.7034 14.0205 14.6117 14.006 14.515L14 14.425V9.575Z" fill="black"/>
</g>
</g>
<defs>
<filter id="filter0_d_29_542" x="0" y="0" width="32" height="32" filterUnits="userSpaceOnUse" color-interpolation-filters="sRGB">
<feFlood flood-opacity="0" result="BackgroundImageFix"/>
<feColorMatrix in="SourceAlpha" type="matrix" values="0 0 0 0 0 0 0 0 0 0 0 0 0 0 0 0 0 0 127 0" result="hardAlpha"/>
<feOffset dy="4"/>
<feGaussianBlur stdDeviation="2"/>
<feComposite in2="hardAlpha" operator="out"/>
<feColorMatrix type="matrix" values="0 0 0 0 0 0 0 0 0 0 0 0 0 0 0 0 0 0 0.25 0"/>
<feBlend mode="normal" in2="BackgroundImageFix" result="effect1_dropShadow_29_542"/>
<feBlend mode="normal" in="SourceGraphic" in2="effect1_dropShadow_29_542" result="shape"/>
</filter>
<linearGradient id="paint0_linear_29_542" x1="39.1" y1="12.2105" x2="-10.25" y2="12.1783" gradientUnits="userSpaceOnUse">
<stop stop-color="#E7E7E7"/>
<stop offset="0.5" stop-color="white"/>
<stop offset="1" stop-color="#E7E7E7"/>
</linearGradient>
<clipPath id="clip0_29_542">
<rect x="4" width="24" height="24" rx="10" fill="white"/>
</clipPath>
</defs>
</svg>
