<svg width="40" height="40" viewBox="0 0 40 40" fill="none" xmlns="http://www.w3.org/2000/svg">
<path d="M13 3.33334H27C32.3334 3.33334 36.6667 7.66667 36.6667 13V27C36.6667 29.5638 35.6483 32.0225 33.8354 33.8354C32.0226 35.6482 29.5638 36.6667 27 36.6667H13C7.66671 36.6667 3.33337 32.3333 3.33337 27V13C3.33337 10.4362 4.35182 7.97749 6.16468 6.16464C7.97753 4.35179 10.4363 3.33334 13 3.33334ZM12.6667 6.66667C11.0754 6.66667 9.54928 7.29881 8.42407 8.42403C7.29885 9.54925 6.66671 11.0754 6.66671 12.6667V27.3333C6.66671 30.65 9.35004 33.3333 12.6667 33.3333H27.3334C28.9247 33.3333 30.4508 32.7012 31.576 31.576C32.7012 30.4508 33.3334 28.9246 33.3334 27.3333V12.6667C33.3334 9.35 30.65 6.66667 27.3334 6.66667H12.6667ZM28.75 9.16667C29.3026 9.16667 29.8325 9.38616 30.2232 9.77686C30.6139 10.1676 30.8334 10.6975 30.8334 11.25C30.8334 11.8025 30.6139 12.3324 30.2232 12.7231C29.8325 13.1138 29.3026 13.3333 28.75 13.3333C28.1975 13.3333 27.6676 13.1138 27.2769 12.7231C26.8862 12.3324 26.6667 11.8025 26.6667 11.25C26.6667 10.6975 26.8862 10.1676 27.2769 9.77686C27.6676 9.38616 28.1975 9.16667 28.75 9.16667ZM20 11.6667C22.2102 11.6667 24.3298 12.5446 25.8926 14.1074C27.4554 15.6702 28.3334 17.7899 28.3334 20C28.3334 22.2101 27.4554 24.3298 25.8926 25.8926C24.3298 27.4554 22.2102 28.3333 20 28.3333C17.7899 28.3333 15.6703 27.4554 14.1075 25.8926C12.5447 24.3298 11.6667 22.2101 11.6667 20C11.6667 17.7899 12.5447 15.6702 14.1075 14.1074C15.6703 12.5446 17.7899 11.6667 20 11.6667ZM20 15C18.674 15 17.4022 15.5268 16.4645 16.4645C15.5268 17.4021 15 18.6739 15 20C15 21.3261 15.5268 22.5979 16.4645 23.5355C17.4022 24.4732 18.674 25 20 25C21.3261 25 22.5979 24.4732 23.5356 23.5355C24.4733 22.5979 25 21.3261 25 20C25 18.6739 24.4733 17.4021 23.5356 16.4645C22.5979 15.5268 21.3261 15 20 15Z" fill="black"/>
</svg>
